<svg id="visual" viewBox="0 0 960 540" width="960" height="540" xmlns="http://www.w3.org/2000/svg" xmlns:xlink="http://www.w3.org/1999/xlink" version="1.1"><rect x="0" y="0" width="960" height="540" fill="#121417"></rect><defs><linearGradient id="grad1_0" x1="43.8%" y1="0%" x2="100%" y2="100%"><stop offset="14.444444444444446%" stop-color="#121417" stop-opacity="1"></stop><stop offset="85.55555555555554%" stop-color="#121417" stop-opacity="1"></stop></linearGradient></defs><defs><linearGradient id="grad2_0" x1="0%" y1="0%" x2="56.3%" y2="100%"><stop offset="14.444444444444446%" stop-color="#121417" stop-opacity="1"></stop><stop offset="85.55555555555554%" stop-color="#121417" stop-opacity="1"></stop></linearGradient></defs><g transform="translate(960, 0)"><path d="M0 297C-42.4 273.3 -84.9 249.5 -131.5 227.8C-178.1 206 -228.9 186.1 -257.2 148.5C-285.5 110.9 -291.2 55.4 -297 0L0 0Z" fill="#715DF2"></path></g><g transform="translate(0, 540)"><path d="M0 -297C39.8 -268.7 79.5 -240.3 126.5 -219.1C173.5 -197.9 227.6 -183.8 257.2 -148.5C286.8 -113.2 291.9 -56.6 297 0L0 0Z" fill="#715DF2"></path></g></svg>